:FULLY-SPECIFIED
:FORCE-ALL-JOINTS-BE-3DOF
:DEGREES
577
root 7.05858 16.3932 -3.58573 -162.694 74.3459 -169.832
lfemur -16.9785 -2.13409 -19.2815
ltibia 44.4784 0 0
lfoot -32.667 10.1704 0
ltoes 6.83845 0 0
rfemur -51.8101 -12.4284 14.2558
rtibia 45.5439 0 0
rfoot 10.0112 5.2591 0
rtoes -31.249 0 0
lowerback 6.75332 -0.82631 -2.20798
upperback 2.31771 -1.08952 3.47564
thorax -1.2811 -0.520927 4.92581
lowerneck -5.38196 -13.3276 -3.91943
upperneck 10.2388 -18.0525 5.05348
head 4.77264 -8.73604 1.01706
lclavicle 7.39299e-015 -1.03313e-014 0
lhumerus -40.9472 -17.0126 93.8401
lradius 55.3822 0 0
lwrist 22.1368 0 0
lhand -21.0314 -4.30034 0
lfingers 7.12502 0 0
lthumb 5.34386 25.6067 0
rclavicle 7.39299e-015 -1.03313e-014 0
rhumerus 28.7339 15.2381 -73.5695
rradius 133.242 0 0
rwrist -45.9015 0 0
rhand -26.0024 -21.5815 0
rfingers 7.12502 0 0
rthumb 0.543404 -771.561 0
578
root 7.03094 16.4185 -3.58991 -159.817 74.1176 -167.005
lfemur -16.8396 -1.6273 -19.336
ltibia 44.004 0 0
lfoot -32.6789 10.5696 0
ltoes 7.36127 0 0
rfemur -51.8755 -12.6009 14.6032
rtibia 45.8809 0 0
rfoot 10.1683 5.7023 0
rtoes -30.8014 0 0
lowerback 6.63546 -0.894996 -2.26575
upperback 2.2343 -1.19351 3.40379
thorax -1.29225 -0.574804 4.88923
lowerneck -5.45998 -13.2121 -3.81907
upperneck 10.3169 -17.9061 4.99097
head 4.79063 -8.66186 0.990655
lclavicle 8.31352e-015 -1.05282e-014 0
lhumerus -40.5878 -17.4049 93.678
lradius 55.3886 0 0
lwrist 22.0812 0 0
lhand -20.8671 -4.24125 0
lfingers 7.12502 0 0
lthumb 5.50237 25.6589 0
rclavicle 8.31352e-015 -1.05282e-014 0
rhumerus 28.8544 15.0756 -73.4011
rradius 132.897 0 0
rwrist -46.1167 0 0
rhand -26.0073 -21.5869 0
rfingers 7.12502 0 0
rthumb 0.538682 -771.567 0
579
root 7.00173 16.4428 -3.59577 -156.7 73.8369 -163.932
lfemur -16.7161 -1.07927 -19.3958
ltibia 43.5579 0 0
lfoot -32.6976 10.9897 0
ltoes 7.90626 0 0
rfemur -51.9334 -12.7672 14.9409
rtibia 46.2661 0 0
rfoot 10.3247 6.20235 0
rtoes -30.3404 0 0
lowerback 6.51915 -0.96548 -2.32164
upperback 2.15103 -1.29908 3.33357
thorax -1.30397 -0.629208 4.85315
lowerneck -5.54267 -13.0926 -3.71453
upperneck 10.4123 -17.7553 4.92486
head 4.81429 -8.58497 0.961965
lclavicle 9.48578e-015 -1.06019e-014 0
lhumerus -40.192 -17.8331 93.5206
lradius 55.3998 0 0
lwrist 22.0222 0 0
lhand -20.6922 -4.18016 0
lfingers 7.12502 0 0
lthumb 5.67109 25.7128 0
rclavicle 9.48578e-015 -1.06019e-014 0
rhumerus 28.975 14.8927 -73.2409
rradius 132.548 0 0
rwrist -46.3775 0 0
rhand -26.0231 -21.592 0
rfingers 7.12502 0 0
rthumb 0.523352 -771.572 0
580
root 6.97105 16.4663 -3.6032 -153.357 73.5057 -160.628
lfemur -16.6076 -0.492467 -19.4608
ltibia 43.1391 0 0
lfoot -32.7226 11.4291 0
ltoes 8.47169 0 0
rfemur -51.9843 -12.9276 15.2693
rtibia 46.6969 0 0
rfoot 10.48 6.75536 0
rtoes -29.8668 0 0
lowerback 6.40435 -1.03764 -2.37575
upperback 2.06793 -1.40609 3.26492
thorax -1.31621 -0.684084 4.81757
lowerneck -5.62975 -12.9694 -3.6061
upperneck 10.5238 -17.6003 4.85543
head 4.84324 -8.50555 0.931157
lclavicle 1.08963e-014 -1.05589e-014 0
lhumerus -39.7622 -18.2957 93.3686
lradius 55.416 0 0
lwrist 21.9599 0 0
lhand -20.5073 -4.11712 0
lfingers 7.12502 0 0
lthumb 5.84954 25.7683 0
rclavicle 1.08963e-014 -1.05589e-014 0
rhumerus 29.0943 14.6901 -73.0887
rradius 132.194 0 0
rwrist -46.6806 0 0
rhand -26.0495 -21.5974 0
rfingers 7.12502 0 0
rthumb 0.497932 -771.577 0
581
root 6.93898 16.4888 -3.61208 -149.801 73.1259 -157.106
lfemur -16.5132 0.130682 -19.5308
ltibia 42.7464 0 0
lfoot -32.7539 11.8863 0
ltoes 9.05586 0 0
rfemur -52.0289 -13.0825 15.589
rtibia 47.1707 0 0
rfoot 10.6336 7.35745 0
rtoes -29.381 0 0
lowerback 6.29102 -1.11135 -2.42816
upperback 1.98505 -1.51441 3.19778
thorax -1.32893 -0.739375 4.78247
lowerneck -5.72094 -12.8428 -3.49409
upperneck 10.6503 -17.4415 4.783
head 4.87713 -8.42376 0.8984
lclavicle 1.25316e-014 -1.04058e-014 0
lhumerus -39.3009 -18.7913 93.2224
lradius 55.4371 0 0
lwrist 21.8948 0 0
lhand -20.3128 -4.05219 0
lfingers 7.12502 0 0
lthumb 6.03724 25.8253 0
rclavicle 1.25316e-014 -1.04058e-014 0
rhumerus 29.2109 14.4687 -72.9442
rradius 131.835 0 0
rwrist -47.0228 0 0
rhand -26.0857 -21.6036 0
rfingers 7.12502 0 0
rthumb 0.46294 -771.584 0
582
root 6.90564 16.5104 -3.62227 -146.046 72.6994 -153.38
lfemur -16.4322 0.787732 -19.6056
ltibia 42.379 0 0
lfoot -32.7911 12.3597 0
ltoes 9.65705 0 0
rfemur -52.0675 -13.2325 15.9004
rtibia 47.6849 0 0
rfoot 10.785 8.00473 0
rtoes -28.8839 0 0
lowerback 6.17911 -1.18649 -2.47898
upperback 1.90241 -1.62389 3.13209
thorax -1.34208 -0.795024 4.74784
lowerneck -5.81597 -12.7129 -3.37881
upperneck 10.7906 -17.2791 4.70785
head 4.9156 -8.33976 0.863861
lclavicle 1.43781e-014 -1.0149e-014 0
lhumerus -38.8105 -19.3182 93.0825
lradius 55.4633 0 0
lwrist 21.8272 0 0
lhand -20.1092 -3.9854 0
lfingers 7.12502 0 0
lthumb 6.23372 25.8838 0
rclavicle 1.43781e-014 -1.0149e-014 0
rhumerus 29.3233 14.2295 -72.8071
rradius 131.47 0 0
rwrist -47.4009 0 0
rhand -26.1313 -21.6111 0
rfingers 7.12502 0 0
rthumb 0.418892 -771.591 0
583
root 6.87111 16.5312 -3.63366 -142.105 72.2279 -149.465
lfemur -16.3641 1.47624 -19.6852
ltibia 42.0358 0 0
lfoot -32.8339 12.8478 0
ltoes 10.2735 0 0
rfemur -52.1006 -13.3779 16.204
rtibia 48.2368 0 0
rfoot 10.9337 8.69329 0
rtoes -28.376 0 0
lowerback 6.06859 -1.26295 -2.5283
upperback 1.82007 -1.73442 3.06778
thorax -1.35559 -0.850974 4.71367
lowerneck -5.91456 -12.5801 -3.26056
upperneck 10.9435 -17.1134 4.63029
head 4.95829 -8.25374 0.827711
lclavicle 1.64224e-014 -9.79524e-015 0
lhumerus -38.2934 -19.8751 92.9495
lradius 55.4946 0 0
lwrist 21.7574 0 0
lhand -19.897 -3.91682 0
lfingers 7.12502 0 0
lthumb 6.43848 25.9438 0
rclavicle 1.64224e-014 -9.79524e-015 0
rhumerus 29.43 13.9733 -72.6773
rradius 131.099 0 0
rwrist -47.8117 0 0
rhand -26.1857 -21.6204 0
rfingers 7.12502 0 0
rthumb 0.366307 -771.6 0
584
root 6.83549 16.551 -3.64612 -137.993 71.7134 -145.374
lfemur -16.308 2.19378 -19.7693
ltibia 41.7157 0 0
lfoot -32.882 13.349 0
ltoes 10.9036 0 0
rfemur -52.1289 -13.5192 16.5003
rtibia 48.8238 0 0
rfoot 11.079 9.41926 0
rtoes -27.8581 0 0
lowerback 5.95943 -1.34058 -2.57622
upperback 1.73806 -1.84584 3.00479
thorax -1.36942 -0.907168 4.67994
lowerneck -6.01642 -12.4446 -3.13965
upperneck 11.1079 -16.9447 4.55062
head 5.00483 -8.16586 0.790119
lclavicle 1.8651e-014 -9.35091e-015 0
lhumerus -37.7522 -20.4603 92.8238
lradius 55.531 0 0
lwrist 21.6857 0 0
lhand -19.6767 -3.84648 0
lfingers 7.12502 0 0
lthumb 6.65107 26.0052 0
rclavicle 1.8651e-014 -9.35091e-015 0
rhumerus 29.5296 13.701 -72.5545
rradius 130.72 0 0
rwrist -48.2521 0 0
rhand -26.2485 -21.6319 0
rfingers 7.12502 0 0
rthumb 0.305702 -771.611 0
